<svg version="1.2" xmlns="http://www.w3.org/2000/svg" viewBox="0 0 500 501" width="500" height="501"><defs><clipPath clipPathUnits="userSpaceOnUse" id="cp1"><path d="m250 1.33c-138.07 0-250 111.93-250 250 0 138.08 111.93 250 250 250 138.07 0 250-111.92 250-250 0-138.07-111.93-250-250-250z"/></clipPath><clipPath clipPathUnits="userSpaceOnUse" id="cp2"><path d="m0 1.33h500v500h-500z"/></clipPath><clipPath clipPathUnits="userSpaceOnUse" id="cp3"><path d="m0 1.33h500v500h-500z"/></clipPath><clipPath clipPathUnits="userSpaceOnUse" id="cp4"><path d="m250 1.33c-138.07 0-250 111.93-250 250 0 138.08 111.93 250 250 250 138.07 0 250-111.92 250-250 0-138.07-111.93-250-250-250z"/></clipPath><clipPath clipPathUnits="userSpaceOnUse" id="cp5"><path d="m405.33 316h85.14v41.33h-85.14z"/></clipPath><clipPath clipPathUnits="userSpaceOnUse" id="cp6"><path d="m17.47 329.33h101.2v34.67h-101.2z"/></clipPath><clipPath clipPathUnits="userSpaceOnUse" id="cp7"><path d="m129.2 89.95h241.6v241.6h-241.6z"/></clipPath><clipPath clipPathUnits="userSpaceOnUse" id="cp8"><path d="m250 89.95c-66.71 0-120.8 54.08-120.8 120.79 0 66.72 54.09 120.81 120.8 120.81 66.71 0 120.8-54.09 120.8-120.81 0-66.71-54.09-120.79-120.8-120.79z"/></clipPath><clipPath clipPathUnits="userSpaceOnUse" id="cp9"><path d="m128 89.33h244v242.67h-244z"/></clipPath><clipPath clipPathUnits="userSpaceOnUse" id="cp10"><path d="m129.2 89.95h241.6v241.6h-241.6z"/></clipPath><clipPath clipPathUnits="userSpaceOnUse" id="cp11"><path d="m250 89.95c-66.71 0-120.8 54.08-120.8 120.79 0 66.72 54.09 120.81 120.8 120.81 66.71 0 120.8-54.09 120.8-120.81 0-66.71-54.09-120.79-120.8-120.79z"/></clipPath><clipPath clipPathUnits="userSpaceOnUse" id="cp12"><path d="m262.85 144h102.48v144h-102.48z"/></clipPath><clipPath clipPathUnits="userSpaceOnUse" id="cp13"><path d="m382.67 88.03h21.33v26.64h-21.33z"/></clipPath><clipPath clipPathUnits="userSpaceOnUse" id="cp14"><path d="m382.67 88.03h22.66v26.64h-22.66z"/></clipPath><clipPath clipPathUnits="userSpaceOnUse" id="cp15"><path d="m269.33 164h120v129.03h-120z"/></clipPath><clipPath clipPathUnits="userSpaceOnUse" id="cp16"><path d="m412 113.33h23.85v25.34h-23.85z"/></clipPath><clipPath clipPathUnits="userSpaceOnUse" id="cp17"><path d="m74.67 220h352v178.67h-352z"/></clipPath><clipPath clipPathUnits="userSpaceOnUse" id="cp18"><path d="m74.67 149.06l381.82 49.38-30.91 239.01-381.82-49.38z"/></clipPath><clipPath clipPathUnits="userSpaceOnUse" id="cp19"><path d="m74.67 149.06l381.82 49.38-30.91 239.01-381.82-49.38z"/></clipPath><clipPath clipPathUnits="userSpaceOnUse" id="cp20"><path d="m92 220h318.67v105.33h-318.67z"/></clipPath><clipPath clipPathUnits="userSpaceOnUse" id="cp21"><path d="m74.67 149.06l381.82 49.38-30.91 239.01-381.82-49.38z"/></clipPath><clipPath clipPathUnits="userSpaceOnUse" id="cp22"><path d="m74.67 149.06l381.82 49.38-30.91 239.01-381.82-49.38z"/></clipPath><clipPath clipPathUnits="userSpaceOnUse" id="cp23"><path d="m81.33 174.67h373.34v136h-373.34z"/></clipPath><clipPath clipPathUnits="userSpaceOnUse" id="cp24"><path d="m74.67 149.06l381.82 49.38-30.91 239.01-381.82-49.38z"/></clipPath><clipPath clipPathUnits="userSpaceOnUse" id="cp25"><path d="m74.67 149.06l381.82 49.38-30.91 239.01-381.82-49.38z"/></clipPath><clipPath clipPathUnits="userSpaceOnUse" id="cp26"><path d="m94.67 208h112v82.67h-112z"/></clipPath><clipPath clipPathUnits="userSpaceOnUse" id="cp27"><path d="m74.67 149.06l381.82 49.38-30.91 239.01-381.82-49.38z"/></clipPath><clipPath clipPathUnits="userSpaceOnUse" id="cp28"><path d="m74.67 149.06l381.82 49.38-30.91 239.01-381.82-49.38z"/></clipPath><clipPath clipPathUnits="userSpaceOnUse" id="cp29"><path d="m146.67 185.33h110.66v84h-110.66z"/></clipPath><clipPath clipPathUnits="userSpaceOnUse" id="cp30"><path d="m74.67 149.06l381.82 49.38-30.91 239.01-381.82-49.38z"/></clipPath><clipPath clipPathUnits="userSpaceOnUse" id="cp31"><path d="m74.67 149.06l381.82 49.38-30.91 239.01-381.82-49.38z"/></clipPath><clipPath clipPathUnits="userSpaceOnUse" id="cp32"><path d="m237.33 176h76v85.33h-76z"/></clipPath><clipPath clipPathUnits="userSpaceOnUse" id="cp33"><path d="m74.67 149.06l381.82 49.38-30.91 239.01-381.82-49.38z"/></clipPath><clipPath clipPathUnits="userSpaceOnUse" id="cp34"><path d="m74.67 149.06l381.82 49.38-30.91 239.01-381.82-49.38z"/></clipPath><clipPath clipPathUnits="userSpaceOnUse" id="cp35"><path d="m313.33 190.67h57.34v72h-57.34z"/></clipPath><clipPath clipPathUnits="userSpaceOnUse" id="cp36"><path d="m74.67 149.06l381.82 49.38-30.91 239.01-381.82-49.38z"/></clipPath><clipPath clipPathUnits="userSpaceOnUse" id="cp37"><path d="m74.67 149.06l381.82 49.38-30.91 239.01-381.82-49.38z"/></clipPath><clipPath clipPathUnits="userSpaceOnUse" id="cp38"><path d="m293.33 298.67h44v52h-44z"/></clipPath><clipPath clipPathUnits="userSpaceOnUse" id="cp39"><path d="m74.67 149.06l381.82 49.38-30.91 239.01-381.82-49.38z"/></clipPath><clipPath clipPathUnits="userSpaceOnUse" id="cp40"><path d="m74.67 149.06l381.82 49.38-30.91 239.01-381.82-49.38z"/></clipPath><clipPath clipPathUnits="userSpaceOnUse" id="cp41"><path d="m296 314.67h24v28h-24z"/></clipPath><clipPath clipPathUnits="userSpaceOnUse" id="cp42"><path d="m74.67 149.06l381.82 49.38-30.91 239.01-381.82-49.38z"/></clipPath><clipPath clipPathUnits="userSpaceOnUse" id="cp43"><path d="m74.67 149.06l381.82 49.38-30.91 239.01-381.82-49.38z"/></clipPath><clipPath clipPathUnits="userSpaceOnUse" id="cp44"><path d="m318.67 314.67h9.33v10.66h-9.33z"/></clipPath><clipPath clipPathUnits="userSpaceOnUse" id="cp45"><path d="m74.67 149.06l381.82 49.38-30.91 239.01-381.82-49.38z"/></clipPath><clipPath clipPathUnits="userSpaceOnUse" id="cp46"><path d="m74.67 149.06l381.82 49.38-30.91 239.01-381.82-49.38z"/></clipPath><clipPath clipPathUnits="userSpaceOnUse" id="cp47"><path d="m314.67 309.33h6.66v6.67h-6.66z"/></clipPath><clipPath clipPathUnits="userSpaceOnUse" id="cp48"><path d="m74.67 149.06l381.82 49.38-30.91 239.01-381.82-49.38z"/></clipPath><clipPath clipPathUnits="userSpaceOnUse" id="cp49"><path d="m74.67 149.06l381.82 49.38-30.91 239.01-381.82-49.38z"/></clipPath><clipPath clipPathUnits="userSpaceOnUse" id="cp50"><path d="m225.33 302.67h44v52h-44z"/></clipPath><clipPath clipPathUnits="userSpaceOnUse" id="cp51"><path d="m74.67 149.06l381.82 49.38-30.91 239.01-381.82-49.38z"/></clipPath><clipPath clipPathUnits="userSpaceOnUse" id="cp52"><path d="m74.67 149.06l381.82 49.38-30.91 239.01-381.82-49.38z"/></clipPath><clipPath clipPathUnits="userSpaceOnUse" id="cp53"><path d="m242.67 318.67h24v28h-24z"/></clipPath><clipPath clipPathUnits="userSpaceOnUse" id="cp54"><path d="m74.67 149.06l381.82 49.38-30.91 239.01-381.82-49.38z"/></clipPath><clipPath clipPathUnits="userSpaceOnUse" id="cp55"><path d="m74.67 149.06l381.82 49.38-30.91 239.01-381.82-49.38z"/></clipPath><clipPath clipPathUnits="userSpaceOnUse" id="cp56"><path d="m234.67 318.67h9.33v10.66h-9.33z"/></clipPath><clipPath clipPathUnits="userSpaceOnUse" id="cp57"><path d="m74.67 149.06l381.82 49.38-30.91 239.01-381.82-49.38z"/></clipPath><clipPath clipPathUnits="userSpaceOnUse" id="cp58"><path d="m74.67 149.06l381.82 49.38-30.91 239.01-381.82-49.38z"/></clipPath><clipPath clipPathUnits="userSpaceOnUse" id="cp59"><path d="m241.33 313.33h6.67v6.67h-6.67z"/></clipPath><clipPath clipPathUnits="userSpaceOnUse" id="cp60"><path d="m74.67 149.06l381.82 49.38-30.91 239.01-381.82-49.38z"/></clipPath><clipPath clipPathUnits="userSpaceOnUse" id="cp61"><path d="m74.67 149.06l381.82 49.38-30.91 239.01-381.82-49.38z"/></clipPath><clipPath clipPathUnits="userSpaceOnUse" id="cp62"><path d="m254.67 328h9.33v13.33h-9.33z"/></clipPath><clipPath clipPathUnits="userSpaceOnUse" id="cp63"><path d="m74.67 149.06l381.82 49.38-30.91 239.01-381.82-49.38z"/></clipPath><clipPath clipPathUnits="userSpaceOnUse" id="cp64"><path d="m74.67 149.06l381.82 49.38-30.91 239.01-381.82-49.38z"/></clipPath><clipPath clipPathUnits="userSpaceOnUse" id="cp65"><path d="m300 325.33h9.33v13.34h-9.33z"/></clipPath><clipPath clipPathUnits="userSpaceOnUse" id="cp66"><path d="m74.67 149.06l381.82 49.38-30.91 239.01-381.82-49.38z"/></clipPath><clipPath clipPathUnits="userSpaceOnUse" id="cp67"><path d="m74.67 149.06l381.82 49.38-30.91 239.01-381.82-49.38z"/></clipPath><clipPath clipPathUnits="userSpaceOnUse" id="cp68"><path d="m154.67 352h30.66v10.67h-30.66z"/></clipPath><clipPath clipPathUnits="userSpaceOnUse" id="cp69"><path d="m74.67 149.06l381.82 49.38-30.91 239.01-381.82-49.38z"/></clipPath><clipPath clipPathUnits="userSpaceOnUse" id="cp70"><path d="m74.67 149.06l381.82 49.38-30.91 239.01-381.82-49.38z"/></clipPath><clipPath clipPathUnits="userSpaceOnUse" id="cp71"><path d="m369.33 330.67h30.67v8h-30.67z"/></clipPath><clipPath clipPathUnits="userSpaceOnUse" id="cp72"><path d="m74.67 149.06l381.82 49.38-30.91 239.01-381.82-49.38z"/></clipPath><clipPath clipPathUnits="userSpaceOnUse" id="cp73"><path d="m74.67 149.06l381.82 49.38-30.91 239.01-381.82-49.38z"/></clipPath><clipPath clipPathUnits="userSpaceOnUse" id="cp74"><path d="m229.33 345.33h22.67v8h-22.67z"/></clipPath><clipPath clipPathUnits="userSpaceOnUse" id="cp75"><path d="m74.67 149.06l381.82 49.38-30.91 239.01-381.82-49.38z"/></clipPath><clipPath clipPathUnits="userSpaceOnUse" id="cp76"><path d="m74.67 149.06l381.82 49.38-30.91 239.01-381.82-49.38z"/></clipPath><clipPath clipPathUnits="userSpaceOnUse" id="cp77"><path d="m313.33 338.67h22.67v8h-22.67z"/></clipPath><clipPath clipPathUnits="userSpaceOnUse" id="cp78"><path d="m74.67 149.06l381.82 49.38-30.91 239.01-381.82-49.38z"/></clipPath><clipPath clipPathUnits="userSpaceOnUse" id="cp79"><path d="m74.67 149.06l381.82 49.38-30.91 239.01-381.82-49.38z"/></clipPath><clipPath clipPathUnits="userSpaceOnUse" id="cp80"><path d="m281.33 340h9.34v13.33h-9.34z"/></clipPath><clipPath clipPathUnits="userSpaceOnUse" id="cp81"><path d="m74.67 149.06l381.82 49.38-30.91 239.01-381.82-49.38z"/></clipPath><clipPath clipPathUnits="userSpaceOnUse" id="cp82"><path d="m74.67 149.06l381.82 49.38-30.91 239.01-381.82-49.38z"/></clipPath><clipPath clipPathUnits="userSpaceOnUse" id="cp83"><path d="m210.52 293.43h138.81v96.4h-138.81z"/></clipPath><clipPath clipPathUnits="userSpaceOnUse" id="cp84"><path d="m279.91 293.43c-38.32 0-69.39 21.58-69.39 48.2 0 26.63 31.07 48.2 69.39 48.2 38.32 0 69.39-21.57 69.39-48.2 0-26.62-31.07-48.2-69.39-48.2z"/></clipPath><clipPath clipPathUnits="userSpaceOnUse" id="cp85"><path d="m209.33 293.33h140v97.34h-140z"/></clipPath><clipPath clipPathUnits="userSpaceOnUse" id="cp86"><path d="m210.52 293.43h138.81v96.4h-138.81z"/></clipPath><clipPath clipPathUnits="userSpaceOnUse" id="cp87"><path d="m279.91 293.43c-38.32 0-69.39 21.58-69.39 48.2 0 26.63 31.07 48.2 69.39 48.2 38.32 0 69.39-21.57 69.39-48.2 0-26.62-31.07-48.2-69.39-48.2z"/></clipPath></defs><style>.a{fill:#1a3636}.b{fill:#fff}.c{fill:#c60536}.d{fill:#f8743c}.e{fill:#f9e1cd}.f{fill:#313131}</style><g clip-path="url(#cp1)"><g clip-path="url(#cp2)"><g clip-path="url(#cp3)"><g clip-path="url(#cp4)"><path fill-rule="evenodd" class="a" d="m-110-108.7h720v720h-720z"/></g></g></g></g><path class="b" d="m151.1 478.6q1.5 1.2 2.8 2.8 0.2 0.1 0.3 0.1 0.2 0.1 0.3 0.2c1.3 0 2.6 0.1 5 0.3q-4.2-1.6-8.4-3.4z"/><path class="b" d="m61.5 413.9q-0.3 0.3-0.5 0.6 0.9 1.1 1.9 2.1 0.4-0.2 0.8-0.3-1.1-1.2-2.2-2.4z"/><path class="b" d="m191.6 491.9q-1.3-0.3-2.6-0.7 0 0.1 0.1 0.1c1 0.9 1.8 1 2.5 0.6z"/><path class="b" d="m208.4 495.2q-1.4-0.2-2.9-0.4 0 0.6-0.1 1.2c0.9-0.3 2.1-0.5 3-0.8z"/><path class="b" d="m284.2 497.8q0.5-0.8 1.1-1.6c-1.3 0.2-2.5 0.4-3.7 0.5 0.9 0.4 1.8 0.7 2.6 1.1z"/><path class="b" d="m264.7 498.7q0.1-0.2 0.1-0.5-1.5 0.1-3 0.2c0.9 0.1 2 0.1 2.9 0.3z"/><path class="b" d="m224.9 498.6c1.4-0.3 3.1-0.2 4.3-0.8q-2.4-0.2-4.8-0.4 0.3 0.6 0.5 1.2z"/><path class="b" d="m188.8 447.3c0.8 0.6 1.6 1.6 2.5 1.8 1 0.2 2.5 0 3-0.7 0.6-0.6 0.5-2.3 0-3.1-0.8-1.2-2.1-2-3.3-3-17.3-13.1-36.8-20.3-58.6-20.6-17.6-0.2-33.9 4.1-48.7 14.4q1.7 1.5 3.4 3c1.2-0.5 2.2-0.9 3.1-1.4 34.9-18.1 67.6-13.1 98.6 9.6z"/><path class="b" d="m162.2 467.5c1.3 1 2.5 2.3 3.9 3 0.8 0.5 2.5 0.5 3-0.1 0.6-0.6 0.6-2.2 0.2-3.1-0.5-1.1-1.6-2.1-2.6-2.9-7.9-6.8-17-11-27.2-12.5-10.1-1.5-20.1-0.7-29.5 4.5q2.5 1.6 5 3.2c16-5.9 33.3-2.9 47.2 7.9z"/><path class="b" d="m159.5 482q0.2 0 0.4 0c-1.6-2.5-2.4-4.3-3.6-5.4-8.1-7.4-17.4-11-28.3-9.3q5.2 2.9 10.4 5.5c4.6 1.1 9.1 2.7 12.7 5.8q4.2 1.8 8.4 3.4z"/><path class="b" d="m216.2 423.8c1.6 1.7 2.9 6.5 6.3 3.5 2.8-2.5-0.9-4.9-2.5-6.6-30.1-33.8-68-47.9-112.8-43.3-20.8 2.2-39.9 9.8-57.3 22.2q1.3 1.8 2.8 3.6c1.7-1 3.3-1.8 4.8-2.8 51.3-32.3 118.8-22.3 158.7 23.4z"/><path class="b" d="m96.3 367.5c1.1 1.1 3.3 1.2 4.9 1.7-0.4-1.8-0.3-4.1-1.4-5.3-14.4-14.6-31.9-20.4-52.2-17.1-8.7 1.3-16.4 5-23.5 10.2q1 2.3 2.2 4.5 1.2-0.8 2.3-1.5c22.9-14.3 48.4-11.4 67.7 7.5z"/><path class="b" d="m76.3 371.9c1.9 1.3 4.3 5.2 6.6 1.6 2.1-3.2-2-4.7-4.1-6.1-14.4-9.7-32.8-8-47.2 4.2q1.1 2.1 2.3 4.1c1.2-0.7 2.2-1.4 3.1-2.1 11.2-8.9 27.4-9.5 39.3-1.7z"/><path class="b" d="m142 442.6c12.6 2 23.7 7.3 33.9 14.9 1.1 0.8 3.1 0.5 4.7 0.7-0.5-1.6-0.6-3.6-1.6-4.4-4.2-3.2-8.5-6.4-13.1-8.7-23.4-11.8-46.6-11.9-69.7 1.3q2.1 1.6 4.2 3.2c14.7-7.1 27.6-9.2 41.6-7z"/><path class="b" d="m156.3 418.1c1.3 0.5 3.2-0.3 4.7-0.6-0.9-1.4-1.5-3.5-2.9-4-11.7-5.1-24.1-7.3-36.9-6.4-18 1.2-34 7.7-49 18.2q1.7 1.6 3.3 3.3c1.9-1 3.6-1.9 5.3-2.9 24-14.3 49-18.2 75.5-7.6z"/><path class="b" d="m439.1 363.7c-0.9 1.1-0.6 3-0.9 4.6 1.6-0.4 3.3-0.6 4.6-1.4 5.4-3.6 10.4-8.1 16.2-11.1 5.7-3 12.2-4 19.1-3.3q1.2-2.6 2.3-5.3c-17.4-0.7-32.7 5.3-41.3 16.5z"/><path class="b" d="m424.7 355c-1.4 1.7-2.9 5.7-2.3 6.2 3.4 2.9 4.5-1.2 6.1-2.9 14.9-16.6 33.5-23.1 55.8-20.9 0.6-1.6 1.2-3.2 1.7-4.7-24.2-3.6-46 4.3-61.3 22.3z"/><path class="b" d="m283.9 383.3c-11 6.8-20.9 14.8-29.3 24.6-0.9 1.1-0.8 3-1.1 4.6 1.6-0.5 3.4-0.7 4.8-1.6 1.7-1.2 2.9-3 4.4-4.5 45.3-44.5 118.3-53.4 175.1-21.2 5.4 3 10.6 6.4 15.9 9.7q1.4-1.9 2.7-3.7-0.1 0-0.1 0c-50.3-37.4-119.1-40.5-172.4-7.9z"/><path class="b" d="m454 371.6c-0.8 0.9-0.4 2.8-0.6 4.2 1.4-0.3 3.3-0.1 4.2-1 3.5-2.9 7.3-5 12.4-5.8q1.4-2.6 2.8-5.3c-0.3-0.1-0.5-0.2-0.8-0.2-6.9 0.5-13.2 2.8-18 8.1z"/><g clip-path="url(#cp5)"><path class="b" d="m408.1 349.6c-0.9 1.2-2 2.4-2.4 3.8-0.3 0.8 0 2.5 0.6 3 0.7 0.5 2.2 0.1 3.2-0.3 0.7-0.3 1.2-1.3 1.7-2 13.7-18 31.8-28.7 54.1-31.9 7.9-1.2 15.8-1 24 0.1q0.7-2.4 1.4-4.9-0.1 0-0.1 0c-33.4-4.5-61 6-82.5 32.2z"/></g><g clip-path="url(#cp6)"><path class="b" d="m24.5 344c29.3-15.6 64.3-9.2 86.3 15.7 1.6 1.8 3.1 5.9 6.2 3.3 3.2-2.7-0.9-4.7-2.3-6.5-23.5-27.5-64.1-34.2-95.1-15.6q-0.9 0.6-2 1.1 0.9 2.4 1.9 4.8c1.8-1 3.4-1.9 5-2.8z"/></g><path class="b" d="m268.8 419.6c-1.7 1.9-3.4 3.9-4.7 6-0.5 0.8-0.1 2.2-0.1 3.3 1.2-0.1 2.9 0.3 3.6-0.3 1.8-1.6 3.1-3.7 4.7-5.5 45.9-52.9 121.8-54.4 170.8-14.4q1.7-2.1 3.4-4.2c-0.6-0.5-1.1-0.9-1.6-1.3-53-41.1-130.1-36.9-176.1 16.4z"/><path class="b" d="m356 423.9c-19.2 4.2-35.3 13.6-47.3 29.4-0.8 1-0.5 2.9-0.7 4.3 1.5-0.4 3.3-0.5 4.4-1.5 4.6-4.1 8.4-9.1 13.3-12.7 28.5-20.7 58.6-20.1 90.4-7q1.9-1.7 3.8-3.4c-0.6-0.4-1.2-0.9-1.9-1.2-19.9-8.9-40.5-12.5-62-7.9z"/><path class="b" d="m338.5 471.4c-1.4 1.8-4.9 4.3-1.5 6.7 3 2.2 4.1-1.9 5.5-3.6 11.6-14.1 26.3-19.1 44.6-16.2 2-1.3 4-2.6 6-4q-0.2 0-0.5-0.1c-19.1-6.3-41.3 0.6-54.1 17.2z"/><path class="b" d="m322.5 464.5c-0.4 0.7-1.1 1.3-1.1 1.9-0.1 1.1-0.1 2.7 0.5 3.2 0.7 0.4 2.3 0.1 3.2-0.4 1-0.7 1.8-2 2.6-3 9-10.9 20.2-18.4 33.9-21.9 14-3.5 27.5-2.4 41.3 2.9q2.4-1.8 4.7-3.6c-28.5-14.2-67.1-4.6-85.1 20.9z"/><path class="b" d="m279.3 434.3c-0.8 1.2-0.4 3.1-0.6 4.7 1.5-0.6 3.4-0.6 4.4-1.7 2.6-2.5 4.5-5.6 7-8.2 37.9-40.2 96.2-44.9 140.3-11.3 1 0.7 2 1.4 2.9 2q1.7-1.9 3.3-3.7c-11.8-9.5-24.8-16.3-39-20.8-43.7-13.8-91.8 2-118.3 39z"/><path class="b" d="m175.3 478.6c-0.9 1.5-1.9 3.1-2.5 4.8-0.2 0.7 0.5 2.1 1.1 2.5 0.7 0.3 2.1 0.2 2.7-0.3 1-0.7 1.5-1.9 2.2-2.8 30.9-48.1 97.6-48.7 129.5-1.4 1.1 1.7 2 3.4 3.3 4.9 0.6 0.5 1.9 0.8 2.8 0.6 0.6-0.1 1-1.2 1.7-1.9-0.9-1.8-1.6-3.5-2.5-5-32-51-105.3-51.8-138.3-1.4z"/><path class="b" d="m67.4 414.9c46-30.7 104.2-17.9 137.1 18.1 0.9 1 1.7 2.2 2.9 2.8 0.8 0.5 2.3 0.4 3.1-0.1 0.5-0.3 0.6-2 0.3-2.8-0.4-1-1.4-1.9-2.1-2.8-34.1-38.3-96.7-52.5-145.3-18.5-0.8 0.6-1.3 1.4-1.9 2.3q1.1 1.2 2.2 2.4c1.3-0.4 2.6-0.7 3.7-1.4z"/><path class="b" d="m316.9 351.4c-17.3-20.9-39.5-31.8-64.2-32.6-26.2 0.3-46.3 9.1-62.9 25.8-3 3-5.5 6.4-7.9 9.8-0.5 0.7-0.2 2.6 0.3 3 0.7 0.5 2.2 0.4 3.2 0 0.8-0.2 1.2-1.3 1.8-2 33.1-41.7 91.7-42.1 125.7-0.8 0.7 0.8 1.2 1.9 2.1 2.2 1.1 0.5 2.4 0.3 3.6 0.3 0-1.1 0.3-2.2 0-3.2-0.2-0.9-1.1-1.7-1.7-2.5z"/><path class="b" d="m291.7 313.8c2.3 3 4.5-0.3 6.3-1.8 36.3-29.7 92-30.1 128.9-1.1 1.9 1.5 4.3 5.1 6.6 2.1 2.5-3.1-1.8-4.6-3.6-6-19.6-15.1-41.9-22.4-64.7-23-25.9-0.2-51.9 8.9-70.2 24-1.9 1.5-5.5 3-3.3 5.8z"/><path class="b" d="m76.4 313.8c1.1-0.4 2.1-1.2 3.1-1.9 36.4-29.4 89.2-30.1 126.6-1.8 1.6 1.2 3.2 2.8 5 3.8 0.8 0.4 2.6 0.2 3-0.4 0.6-0.6 0.5-2.5-0.1-3.1-1.5-1.8-3.4-3.4-5.3-4.8-18.5-13.5-39.3-20.6-59.3-21.3-26.4-1.6-55.9 8.5-73.5 23.9-0.9 0.7-1.8 1.7-2.3 2.7-0.2 0.6 0 1.9 0.5 2.4 0.5 0.5 1.7 0.7 2.3 0.5z"/><path class="b" d="m193.9 489.2q0.3-0.5 0.7-1.1c24.7-35.2 75.3-34.8 99.5 0.7 1.3 1.9 2.3 6.3 5.6 4 3.3-2.2-0.2-5.1-1.6-7.1-13.1-18.8-31.4-28.2-52.8-29.2-15.5 0.3-28.6 4.1-39.5 13-6 4.8-10.9 11-16 16.9-1 1.1-1.4 4.1-0.8 4.8q1.3 0.4 2.6 0.7c0.9-0.5 1.6-1.7 2.3-2.7z"/><path class="b" d="m194.3 282.9c0.8-0.4 1.4-1.4 2.1-2.2 27.6-32.3 77.1-32.8 105.5-1 1.4 1.6 2.6 5 5.4 2.5 0.7-0.6-1.1-3.9-1.8-5.9-0.3-0.7-1-1.2-1.5-1.7-14.9-15.5-33-23.2-55-23.6-21.4 0.4-40 8.4-55 24.7-1.2 1.3-2.4 2.7-3.2 4.3-0.4 0.7 0.1 2.3 0.7 3 0.4 0.5 2 0.3 2.8-0.1z"/><path class="b" d="m313.5 314.6c-2.5 1.7-4.9 3.6-7 5.7-0.6 0.6-0.2 2.4-0.2 3.6 1.1 0 2.2 0.2 3.2 0 0.9-0.2 1.5-1 2.2-1.6 30.9-23.6 70.5-24 102-1.2 1 0.8 2.1 1.9 3.3 2.1 1.2 0.1 2.5-0.8 4.7-1.6-2.3-2.2-3.5-3.5-4.8-4.6-29.7-22.9-72.8-23.9-103.4-2.4z"/><path class="b" d="m192.9 320.7c1.3 1 2.7 2.2 4.2 2.6 1 0.3 2.3-0.7 4.3-1.3-1.6-1.8-2.2-3-3.2-3.8-3.2-2.3-6.3-4.6-9.6-6.6-31.2-18.7-72.9-16-98.8 6.3-1.2 1-1.5 3.1-2.2 4.7 1.7-0.2 3.4-0.3 5.1-0.6 0.5-0.1 1-0.7 1.5-1 29.6-22.1 68.8-22.2 98.7-0.3z"/><path class="b" d="m199.6 359.2c-1 1.2-1.8 4.1-1.2 4.8 2.2 2.3 3.6-0.1 5-1.6 25-27.7 67-28.3 92.9-1.3 0.8 0.9 1.6 2.2 2.6 2.4 1.3 0.2 2.7-0.5 4.8-1-1.6-2.2-2.3-3.3-3.2-4.3-25.3-29.7-76.2-29.2-100.9 1z"/><path class="b" d="m309.9 433.8c20.5-18 43.8-26.5 71.2-21.6 4 0.7 7.8 2.3 11.7 3.1 1.4 0.3 3.1-0.7 4.6-1.1q0.1-0.9 0.1-1.9c-1.9-0.9-3.7-2.1-5.7-2.8-36.7-12-74.9 4.4-97.2 33.3-0.8 1-0.4 2.9-0.6 4.3 1.5-0.4 3.4-0.4 4.4-1.4 4-3.8 7.4-8.3 11.5-11.9z"/><path class="b" d="m230.7 410.1c1.5 1.7 2.8 5.7 5.6 3.5 3.2-2.4-0.4-4.8-2-6.6-24.4-28.6-55.9-42.6-93.1-44.7-2 0-4-0.3-5.9 0.1-1.2 0.2-2.2 1.3-3.3 2.1 1.1 0.8 2.2 2.3 3.4 2.5 4.2 0.5 8.4 0.4 12.6 0.8 33 3.4 60.7 17.3 82.7 42.3z"/><path class="b" d="m273.3 278c5.3 2.8 9.7 7.4 14.7 11 1.3 0.9 3.2 1 4.8 1.6-0.3-1.8-0.5-3.5-1.1-5.2-0.3-0.7-1.2-1.3-1.8-1.9-11.3-11.1-24.9-16.5-41.5-16.8-15.9 0.4-30.1 6.5-41.2 19.1-1 1.2-0.8 3.3-1.2 5 1.6-0.5 3.7-0.5 4.7-1.5 16.3-17.7 41.3-22.5 62.6-11.3z"/><path class="b" d="m403.6 326.7c-11.9-8.2-25.2-12.2-39.7-12.5-14.8-0.1-29 4.4-41 12.9-1.5 1.1-3 2.2-4.1 3.6-0.6 0.7-0.8 2.7-0.3 3 0.8 0.6 2.3 0.8 3.4 0.5 0.9-0.2 1.7-1.1 2.6-1.7 22.9-15.8 46.7-17.4 71.3-4.3 2.8 1.5 5.3 3.5 8.1 4.9 1 0.6 2.6 0 3.9 0-0.3-1.3-0.3-2.8-1-3.8-0.7-1.1-2.1-1.8-3.2-2.6z"/><path class="b" d="m181.2 331.7c1.2 0.8 2.4 1.9 3.8 2.4 0.7 0.2 2.1-0.2 2.6-0.9 0.5-0.6 0.6-2.1 0.1-2.7-1-1.3-2.3-2.3-3.7-3.3-12.1-8.6-25.6-12.8-44.2-12.9-10.8-0.1-23.8 4.3-35.6 12.4-1.2 0.9-2.5 1.7-3.4 2.9-0.5 0.8-0.8 2.8-0.4 3.1 0.9 0.6 2.4 0.7 3.6 0.6 0.7-0.1 1.4-1 2.2-1.5 22.9-16.3 51.8-16.3 75-0.1z"/><path class="b" d="m209.9 494.4c15.6-21.6 49.6-24.7 69 0.6 0.7 0.8 1.6 1.3 2.7 1.7 1.2-0.1 2.4-0.3 3.6-0.5q0.2-0.2 0.3-0.3c-1.8-2.6-3.4-5.3-5.4-7.6-6-6.9-13.5-11.5-22.1-14.3-18.6-6.1-41.3 1.2-51.8 16.8-0.6 1.1-0.6 2.5-0.7 3.9q1.5 0.3 2.9 0.5c0.7-0.1 1.2-0.4 1.5-0.8z"/><path class="b" d="m282.7 363.5c-9.4-7.7-20.4-11.3-32.2-11.7-13.6 0.2-25.2 4.8-34.7 14.1-1.5 1.5-4.1 3.3-1.6 5.5 0.7 0.6 3.7-0.6 4.9-1.7 5.5-5.2 11.8-9 19-10.9 16.3-4.3 30.8-0.5 43.5 10.7 1.1 1 3.2 0.8 4.9 1.2-0.4-1.6-0.6-3.3-1.3-4.7-0.5-1-1.6-1.8-2.5-2.5z"/><path class="b" d="m392.5 337.1c-14.2-8.7-30.9-10.8-46.7-5.1-5.3 1.9-10.1 5.2-14.9 8.2-0.8 0.5-0.7 2.5-1 3.8 1.4 0.1 2.7 0.2 4 0.1 0.7-0.1 1.2-0.9 1.9-1.3 8-5.6 16.9-8.4 26.6-8.6 11-0.2 21 3 30.1 9.1 1.2 0.8 3.1 0.3 4.7 0.3-0.6-1.5-0.9-3.1-1.8-4.4-0.6-0.9-1.8-1.4-2.9-2.1z"/><path class="b" d="m171.9 343.3c1.6 1.1 3.7 3.2 5.2 0.3 0.5-0.9-1-3.6-2.2-4.5-9.3-6.8-19.7-10.1-29.3-10.2-12.9-0.1-23 3.1-31.8 9.7-1.1 0.9-1.3 3.2-1.9 4.9 1.6-0.2 3.5 0.1 4.7-0.6 18.5-12.2 36.9-11.6 55.3 0.4z"/><path class="b" d="m273 296.4c1 0.9 2 2.2 3.2 2.4 1.1 0.2 2.5-0.8 4.4-1.5-1.6-1.9-2.3-3-3.2-4-14.1-14.8-42.4-14.6-56.1 0.6-0.9 1-0.8 3-1.2 4.5 1.7-0.3 3.8-0.1 4.9-1.1 13.5-12.5 34.1-13 48-0.9z"/><path class="b" d="m269.1 374.2c-9.5-8.1-28.8-8-38.2 0.2-1.2 1.1-1.4 3.2-2 4.8 1.6-0.2 3.7 0.1 4.9-0.7 6.4-4.5 13.5-6.1 20.9-4.6 4.2 0.9 8.1 3.1 11.9 4.9 2.3 1 4 1.7 5-1.8-0.7-0.8-1.5-1.9-2.5-2.8z"/><path class="b" d="m243.5 487.1c-7.9 0.2-14.8 2.8-19.3 9.5q0.1 0.4 0.2 0.8 2.4 0.2 4.8 0.4c0.1-0.1 0.2-0.1 0.3-0.2 10.1-7.7 20-6.9 30 0.1 0.6 0.4 1.4 0.6 2.3 0.7q1.5-0.1 3-0.2 0.2-0.7 0.5-1.5c-5.6-6.6-13-9.9-21.8-9.6z"/><path class="b" d="m249.2 296.5c-4.8 0.6-10.1 4.2-14.2 6.3-0.8 0.4-0.7 2.5-1.1 3.8 1.4 0.1 3.1 0.7 4 0.1 7.6-5 15.1-5 22.9-0.4 1 0.6 2.8-0.1 4.2-0.2-0.6-1.4-0.8-3.4-1.8-3.9-3.6-1.8-7.9-5.3-12-5.7q-1-0.1-2 0z"/><path class="b" d="m249.2 381.5c-4.8 0.5-10.1 4.1-14.2 6.3-0.8 0.4-0.7 2.5-1.1 3.8 1.4 0 3.1 0.7 4 0.1 7.6-5 15.1-5.1 22.9-0.4 1 0.6 2.8-0.1 4.2-0.2-0.6-1.4-0.8-3.5-1.8-4-3.6-1.8-7.9-5.3-12-5.6q-1-0.1-2 0z"/><path class="b" d="m154 350.7c1.1 0.4 2.7-0.8 4.1-1.2-0.7-1.2-1.2-3-2.2-3.3-10.2-3.7-17.3-2.7-27.3 1-0.8 0.3-1 2.4-1.6 3.6 1.3 0.3 2.8 1.2 3.8 0.8 7.7-3.4 15.3-3.8 23.2-0.9z"/><path class="b" d="m377 346.5c-8.4-4-17-4.4-25.6-0.4-1 0.5-1.5 2.2-2.2 3.3 1.4 0.5 2.9 1.4 4.2 1.2 3.5-0.5 6.9-1.5 10.7-2.4 3.6 0.9 7.1 2 10.7 2.7 1.3 0.2 2.8-0.6 4.2-1-0.7-1.2-1-3-2-3.4z"/><path class="b" d="m64.7 377.5c-2.1-0.9-4.5-1.4-7.2-2.2-2.5 0.9-5.2 1.6-7.6 2.8-0.7 0.3-1.1 2.1-0.9 3 0.1 0.6 1.6 1.1 2.5 1.1 4 0.1 7.9 0 11.9-0.2 0.9-0.1 2.4-0.9 2.7-1.7 0.2-0.8-0.6-2.4-1.4-2.8z"/><g clip-path="url(#cp7)"><g clip-path="url(#cp8)"><g clip-path="url(#cp9)"><g clip-path="url(#cp10)"><g clip-path="url(#cp11)"><path class="c" d="m129.2 89.9h241.6v241.6h-241.6z"/></g></g></g></g></g><g clip-path="url(#cp12)"><path class="b" d="m264 283.4c-0.6 1-0.4 2.3 0.6 3 1 0.7 2.3 0.5 3-0.5l97.1-137.5-5.1-3.5z"/><path  d="m265.8 287.1c-0.4 0-0.9-0.2-1.3-0.5-1.1-0.7-1.4-2.2-0.7-3.3l95.8-138.7 5.4 3.7-97.2 137.7c-0.5 0.7-1.2 1.1-2 1.1zm-1.6-3.6c-0.6 0.9-0.3 2.1 0.5 2.7 0.9 0.6 2.1 0.4 2.7-0.4l96.9-137.3-4.6-3.3z"/></g><g clip-path="url(#cp13)"><path class="b" d="m403.3 93.6c1-1.3 0.6-3.1-0.7-4.1l-0.8-0.5c-1.3-0.9-3.2-0.6-4.1 0.7l-13.8 20 5.4 3.8z"/></g><g clip-path="url(#cp14)"><path  d="m389.4 113.8l-5.8-4 13.9-20.2c0.5-0.7 1.2-1.2 2.1-1.3 0.8-0.2 1.6 0 2.3 0.5l0.8 0.5c0.7 0.5 1.2 1.3 1.3 2.1 0.2 0.8 0 1.7-0.5 2.4zm-5.1-4.2l5 3.5 13.9-19.6c0.4-0.6 0.6-1.4 0.4-2.1-0.1-0.7-0.5-1.3-1.1-1.7l-0.8-0.6c-0.6-0.4-1.3-0.5-2-0.4-0.7 0.1-1.3 0.5-1.7 1.1z"/></g><path class="d" d="m383.9 109.7l-24.3 35.2 5.1 3.5 24.6-34.9z"/><path  d="m364.7 148.7l-5.4-3.7 0.1-0.2 24.4-35.4 5.8 4zm-4.7-3.9l4.6 3.3 24.4-34.5-5-3.5z"/><g clip-path="url(#cp15)"><path class="b" d="m271.2 289.6c-0.8 0.9-0.8 2.2 0.1 3.1 0.9 0.8 2.3 0.7 3.1-0.2l114.4-123.4-4.5-4.1z"/><path  d="m272.8 293.5c-0.6 0-1.2-0.3-1.6-0.7-1-0.9-1.1-2.4-0.2-3.4l113.3-124.7 4.9 4.4-0.2 0.2-114.4 123.4c-0.5 0.5-1.2 0.8-1.8 0.8zm111.5-128.2l-112.9 124.4c-0.7 0.8-0.7 2.1 0.1 2.8 0.8 0.7 2 0.6 2.7-0.1l114.3-123.3z"/></g><g clip-path="url(#cp16)"><path class="b" d="m434.4 120c1.1-1.2 1-3.1-0.2-4.2l-0.6-0.6c-1.3-1.1-3.2-1-4.3 0.2l-16.3 18 4.9 4.4z"/><path  d="m417.9 138.1l-5.2-4.7 16.5-18.2c0.5-0.6 1.3-1 2.2-1 0.9-0.1 1.7 0.2 2.3 0.8l0.7 0.6c0.6 0.6 1 1.4 1 2.2 0 0.9-0.3 1.7-0.9 2.4zm-4.5-4.8l4.5 4.1 16.3-17.6c0.6-0.6 0.8-1.3 0.8-2 0-0.7-0.4-1.4-0.9-1.9l-0.6-0.6c-0.6-0.5-1.3-0.8-2-0.7-0.8 0-1.4 0.3-1.9 0.9z"/></g><path class="d" d="m413 133.4l-28.7 31.6 4.5 4.1 29.1-31.3z"/><path  d="m388.8 169.5l-4.8-4.5 29-32 5.2 4.8-0.1 0.2zm-4.3-4.5l4.2 3.8 28.8-31-4.6-4.1z"/><g clip-path="url(#cp17)"><g clip-path="url(#cp18)"><g clip-path="url(#cp19)"><path class="b" d="m426.1 318.5c-2.2-10.1-13.9-7.1-16.2-6.4q0.3-4.8 0.3-10c0.7-87.8-148.4-81.3-161-80.6q-0.8 0.1-1.6 0.1c-9.8 0.2-102.1 3.1-141.8 45.5 0 0-13 18.1-16.1 42-4.1-1.5-10.9-3-14.2 2.5-4.9 8 14 17.6 14 17.6 0 0-10.4 5.1-10.7 11.6-0.3 6.5 11.7 10.2 16.9 8.2l0.2-0.1 0.4 0.9c-2 2.7-9.3 10-7.7 16.2 1.8 7.1 16.4 3.3 21.2 1.8 36.1 33.9 116 32.1 173.9 27 34.6-3 69.3-3.1 93.6-17.8 4.4 3.3 16.9 11.6 20.7 3.8 3-6.5-0.9-16.2-2.4-20.7q0.5-0.8 1-1.6c4.8 3.4 16.5 2.1 18-5.5 1.6-7.9-7-17.2-7-17.2 0 0 20.8-6.1 18.5-17.3z"/></g></g></g><g clip-path="url(#cp20)"><g clip-path="url(#cp21)"><g clip-path="url(#cp22)"><path class="e" d="m409.9 312.1q0.3-4.8 0.3-10c0.6-87.8-148.4-81.3-161-80.6q-0.8 0.1-1.7 0.1c-9.8 0.2-102 3.1-141.8 45.5q-8.5 12.8-13 27.6c0 0.1 23.8 42.8 66 27.1 42.1-15.8 109.7-49.9 145.1-48.4 35.4 1.5 67.3-1.4 73.1 6.2 6.9 9.2 17.6 33 33 32.5z"/></g></g></g><g clip-path="url(#cp23)"><g clip-path="url(#cp24)"><g clip-path="url(#cp25)"><path class="d" d="m292.5 262.2c-3.7 0.5-7.4 0.9-11.1 1.1-11.8 0.8-44.6 5.3-87.8 31.2-54.6 32.6-96.8 9.1-110.8-44.4-14-53.4 93-73.3 128-74.7 35-1.5 123.1 7.2 176.3 58.7 0 0 31.9-26.7 66.5-17.1 0 0-14.7 33.1-36.1 38.8 0 0 26.6 29.7 18 54.2 0 0-39.6-0.8-53.3-46.1 0 0-52.7-6.3-89.7-1.7z"/></g></g></g><g clip-path="url(#cp26)"><g clip-path="url(#cp27)"><g clip-path="url(#cp28)"><path class="b" d="m206.3 287.3c-1.4-20.7-6.4-33.5-15.7-40.7-9.9-7.7-23.3-8-38.8-8.3-4-0.1-8.1-0.2-12.2-0.4-14.4-0.7-25.6-6.3-33.3-16.4q-4.3-5.7-6.6-12.5-2.3 1.8-4.4 3.8 2.5 6.3 6.6 11.8c6 8 17.3 17.6 37.4 18.7 4.3 0.2 8.4 0.3 12.4 0.4 14.6 0.3 27.2 0.5 35.6 7.2 5.4 4.1 12.3 12.7 13.8 39.3 1.7-1 3.5-2 5.2-2.9z"/></g></g></g><g clip-path="url(#cp29)"><g clip-path="url(#cp30)"><g clip-path="url(#cp31)"><path class="b" d="m241.3 219.7c-10-8.6-23.7-8.7-39.5-8.9-4 0-8.1 0-12.4-0.2-14.5-0.6-25.7-6.7-33.4-18q-2.3-3.4-4-7.2-2.6 0.7-5.2 1.5 1.9 4.5 4.6 8.5c5.9 8.9 17.4 19.7 37.8 20.6 4.3 0.1 8.5 0.2 12.5 0.2 14.8 0.1 27.6 0.3 36 7.6 8.5 7.3 12.7 21.7 13.5 45.1q2.7-0.8 5.3-1.4c-0.9-24.6-5.7-39.6-15.2-47.8z"/></g></g></g><g clip-path="url(#cp32)"><g clip-path="url(#cp33)"><g clip-path="url(#cp34)"><path class="b" d="m277 205.5c-3.6-1.7-7.4-3.4-11.2-5.3-10.8-5.4-17.9-13.4-21.3-23.6q-3-0.3-5.8-0.5c2.7 9.7 9.4 21.2 24.7 28.9 3.9 2 7.7 3.7 11.3 5.4 13.4 6.2 25 11.6 29.7 21.8 3.3 7.1 3.2 16.5-0.1 28.9q2.8-0.1 5.6-0.3c3.4-13 3.1-22.9-0.6-30.9-5.5-11.9-17.9-17.7-32.3-24.4z"/></g></g></g><g clip-path="url(#cp35)"><g clip-path="url(#cp36)"><g clip-path="url(#cp37)"><path class="b" d="m328.9 210.7c3.5 2.7 6.9 5.1 10.1 7.5 12 8.6 22.4 16 25.1 26.9 1.2 4.9 0.9 10.5-1 17q2.9 0.2 5.5 0.5c1.9-7.1 2.2-13.2 0.8-18.8-3.2-12.8-14.3-20.8-27.2-30-3.2-2.4-6.6-4.8-9.9-7.4q-7-5.2-11.6-12.6-3.7-1.4-7.3-2.6c2.8 6.6 7.6 13.4 15.5 19.5z"/></g></g></g><g clip-path="url(#cp38)"><g clip-path="url(#cp39)"><g clip-path="url(#cp40)"><path class="b" d="m323.4 299.7q1 0.3 2 0.8 0.9 0.4 1.8 0.9 0.9 0.6 1.8 1.2 0.8 0.7 1.6 1.4 0.8 0.8 1.4 1.6 0.7 0.9 1.4 1.8 0.6 1 1.1 2 0.5 1 1 2.1 0.4 1.1 0.7 2.2 0.4 1.2 0.6 2.3 0.2 1.2 0.4 2.5 0.1 1.2 0.1 2.4 0 1.3 0 2.6-0.1 1.2-0.3 2.5-0.2 1.2-0.5 2.5-0.2 1.2-0.6 2.5-0.4 1.2-0.9 2.4-0.5 1.2-1 2.3-0.6 1.2-1.2 2.2-0.7 1.1-1.4 2.1-0.8 1.1-1.6 2-0.8 0.9-1.6 1.8-0.9 0.8-1.8 1.6-1 0.7-1.9 1.4-1 0.6-2 1.2-1 0.5-2.1 0.9-1 0.4-2.1 0.7-1 0.3-2.1 0.5-1 0.2-2.1 0.3-1.1 0-2.1 0-1.1-0.1-2.1-0.3-1-0.2-2-0.5-1-0.3-1.9-0.7-1-0.4-1.9-1-0.9-0.5-1.7-1.2-0.9-0.6-1.6-1.4-0.8-0.7-1.5-1.6-0.7-0.8-1.3-1.8-0.6-0.9-1.2-1.9-0.5-1.1-0.9-2.1-0.4-1.1-0.8-2.3-0.3-1.1-0.6-2.3-0.2-1.2-0.3-2.4-0.1-1.2-0.2-2.5 0-1.2 0.1-2.5 0-1.3 0.2-2.5 0.2-1.3 0.5-2.5 0.3-1.3 0.7-2.5 0.3-1.2 0.8-2.4 0.5-1.2 1.1-2.4 0.5-1.1 1.2-2.2 0.6-1.1 1.4-2.1 0.7-1 1.5-1.9 0.8-1 1.7-1.8 0.8-0.9 1.8-1.6 0.9-0.8 1.9-1.4 0.9-0.7 1.9-1.2 1.1-0.5 2.1-1 1-0.4 2.1-0.7 1-0.3 2.1-0.5 1.1-0.2 2.1-0.2 1.1-0.1 2.1 0 1.1 0 2.1 0.2 1 0.2 2 0.5z"/></g></g></g><g clip-path="url(#cp41)"><g clip-path="url(#cp42)"><g clip-path="url(#cp43)"><path class="f" d="m319.3 330q-0.2 1.4-0.6 2.7-0.4 1.3-0.9 2.5-0.6 1.2-1.4 2.3-0.8 1-1.7 1.9-0.9 0.8-1.9 1.5-1 0.6-2.1 1-1.1 0.4-2.2 0.5-1.1 0.1-2.2 0-1.2-0.1-2.2-0.6-1.1-0.4-2-1-1-0.7-1.8-1.5-0.8-0.9-1.5-2-0.6-1-1.1-2.3-0.5-1.2-0.7-2.5-0.3-1.3-0.3-2.7-0.1-1.3 0.1-2.7 0.2-1.3 0.5-2.7 0.4-1.3 1-2.5 0.6-1.2 1.4-2.2 0.7-1.1 1.6-1.9 1-0.9 2-1.5 1-0.7 2.1-1.1 1.1-0.3 2.2-0.5 1.1-0.1 2.2 0 1.1 0.2 2.2 0.6 1 0.4 2 1.1 1 0.6 1.8 1.5 0.8 0.9 1.5 1.9 0.6 1.1 1.1 2.3 0.5 1.2 0.7 2.5 0.3 1.3 0.3 2.7 0.1 1.4-0.1 2.7z"/></g></g></g><g clip-path="url(#cp44)"><g clip-path="url(#cp45)"><g clip-path="url(#cp46)"><path class="f" d="m327.7 320.5q-0.1 0.9-0.6 1.7-0.4 0.8-1.1 1.3-0.6 0.6-1.5 0.9-0.8 0.2-1.6 0.1-0.9-0.1-1.6-0.6-0.7-0.4-1.2-1.1-0.5-0.7-0.8-1.6-0.2-0.9 0-1.8 0.1-0.9 0.5-1.7 0.4-0.8 1.1-1.4 0.7-0.6 1.5-0.8 0.8-0.2 1.7-0.1 0.8 0.1 1.5 0.5 0.8 0.5 1.3 1.2 0.5 0.7 0.7 1.6 0.2 0.9 0.1 1.8z"/></g></g></g><g clip-path="url(#cp47)"><g clip-path="url(#cp48)"><g clip-path="url(#cp49)"><path class="f" d="m315 312.1q0 0.5 0.2 1 0.1 0.5 0.5 0.8 0.3 0.4 0.7 0.7 0.5 0.2 1 0.2 0.5 0 1-0.1 0.5-0.2 0.9-0.5 0.3-0.3 0.6-0.8 0.2-0.4 0.3-0.9 0-0.5-0.1-1-0.2-0.5-0.5-0.9-0.3-0.4-0.7-0.6-0.5-0.3-1-0.3-0.5-0.1-1 0.1-0.5 0.2-0.9 0.5-0.4 0.3-0.7 0.8-0.2 0.5-0.3 1z"/></g></g></g><g clip-path="url(#cp50)"><g clip-path="url(#cp51)"><g clip-path="url(#cp52)"><path class="b" d="m267.3 322.5q0.4 1.3 0.7 2.5 0.3 1.3 0.4 2.5 0.2 1.3 0.3 2.5 0.1 1.3 0.1 2.6-0.1 1.2-0.2 2.4-0.1 1.3-0.4 2.5-0.2 1.1-0.5 2.3-0.4 1.1-0.8 2.2-0.4 1.1-1 2.1-0.5 1-1.1 2-0.6 0.9-1.3 1.8-0.7 0.8-1.5 1.6-0.7 0.7-1.6 1.4-0.8 0.6-1.7 1.2-0.9 0.5-1.9 1-0.9 0.4-1.9 0.7-1 0.3-2 0.5-1 0.2-2.1 0.2-1 0.1-2.1 0-1.1 0-2.1-0.2-1.1-0.2-2.1-0.5-1.1-0.3-2.1-0.7-1.1-0.4-2.1-1-1-0.5-2-1.1-0.9-0.7-1.9-1.4-0.9-0.8-1.8-1.6-0.8-0.9-1.6-1.8-0.8-1-1.6-2-0.7-1-1.4-2.1-0.6-1-1.2-2.2-0.6-1.1-1-2.3-0.5-1.2-0.9-2.4-0.4-1.3-0.7-2.5-0.3-1.3-0.4-2.5-0.2-1.3-0.3-2.5-0.1-1.3 0-2.6 0-1.2 0.1-2.4 0.1-1.3 0.4-2.5 0.2-1.1 0.5-2.3 0.4-1.1 0.8-2.2 0.4-1.1 1-2.1 0.5-1 1.1-2 0.6-0.9 1.3-1.8 0.7-0.8 1.5-1.6 0.7-0.7 1.6-1.4 0.8-0.6 1.7-1.2 0.9-0.5 1.9-0.9 0.9-0.5 1.9-0.8 1-0.3 2-0.5 1.1-0.2 2.1-0.2 1-0.1 2.1 0 1.1 0 2.1 0.2 1.1 0.2 2.2 0.5 1 0.3 2 0.7 1.1 0.4 2.1 1 1 0.5 2 1.1 1 0.7 1.9 1.4 0.9 0.8 1.8 1.6 0.8 0.9 1.6 1.8 0.9 1 1.6 2 0.7 1 1.4 2.1 0.6 1 1.2 2.2 0.6 1.1 1 2.3 0.5 1.2 0.9 2.4z"/></g></g></g><g clip-path="url(#cp53)"><g clip-path="url(#cp54)"><g clip-path="url(#cp55)"><path class="f" d="m266 331.3q0.1 1.3 0.1 2.7 0 1.4-0.3 2.7-0.3 1.3-0.7 2.5-0.5 1.2-1.2 2.3-0.6 1.1-1.4 1.9-0.9 0.9-1.8 1.6-1 0.6-2 1-1.1 0.4-2.2 0.6-1.1 0.1-2.2 0-1.1-0.1-2.2-0.5-1.1-0.4-2.1-1-1.1-0.7-2-1.5-0.9-0.9-1.7-1.9-0.7-1.1-1.3-2.3-0.6-1.2-1-2.5-0.4-1.3-0.5-2.7-0.2-1.3-0.2-2.7 0.1-1.4 0.3-2.7 0.3-1.3 0.7-2.5 0.5-1.2 1.2-2.3 0.6-1 1.5-1.9 0.8-0.9 1.7-1.5 1-0.7 2-1.1 1.1-0.4 2.2-0.6 1.1-0.1 2.2 0 1.2 0.1 2.3 0.5 1 0.4 2.1 1 1 0.7 1.9 1.5 0.9 0.9 1.7 2 0.7 1 1.3 2.2 0.6 1.2 1 2.5 0.4 1.3 0.6 2.7z"/></g></g></g><g clip-path="url(#cp56)"><g clip-path="url(#cp57)"><g clip-path="url(#cp58)"><path class="f" d="m243.5 323.6q0 0.8-0.2 1.6-0.3 0.8-0.9 1.4-0.5 0.6-1.3 1-0.7 0.4-1.5 0.4-0.9 0.1-1.7-0.2-0.8-0.2-1.4-0.8-0.6-0.5-1-1.2-0.4-0.8-0.5-1.6-0.1-0.8 0.2-1.6 0.2-0.8 0.7-1.5 0.5-0.6 1.2-1 0.8-0.4 1.6-0.5 0.9-0.1 1.7 0.1 0.8 0.3 1.5 0.9 0.7 0.5 1.1 1.3 0.4 0.8 0.5 1.7z"/></g></g></g><g clip-path="url(#cp59)"><g clip-path="url(#cp60)"><g clip-path="url(#cp61)"><path class="f" d="m247.7 316.3q0 0.5-0.1 1-0.2 0.5-0.5 0.8-0.4 0.4-0.8 0.6-0.5 0.3-1 0.3-0.5 0-0.9-0.1-0.5-0.2-0.9-0.5-0.4-0.3-0.6-0.8-0.3-0.4-0.3-0.9-0.1-0.5 0.1-1 0.1-0.5 0.4-0.9 0.3-0.4 0.8-0.6 0.4-0.3 0.9-0.3 0.6-0.1 1.1 0.1 0.5 0.1 0.9 0.5 0.4 0.3 0.6 0.8 0.3 0.5 0.3 1z"/></g></g></g><g clip-path="url(#cp62)"><g clip-path="url(#cp63)"><g clip-path="url(#cp64)"><path class="b" d="m262.8 334.8q0 1.1-0.3 2.1-0.4 1-0.9 1.7-0.6 0.8-1.4 1.1-0.7 0.4-1.5 0.4-0.8 0-1.6-0.4-0.7-0.5-1.3-1.2-0.5-0.8-0.8-1.8-0.3-1-0.3-2.1 0.1-1 0.4-2 0.3-1 0.9-1.8 0.6-0.7 1.4-1.1 0.7-0.4 1.5-0.4 0.8 0 1.6 0.5 0.7 0.4 1.2 1.2 0.6 0.8 0.9 1.7 0.3 1 0.2 2.1z"/></g></g></g><g clip-path="url(#cp65)"><g clip-path="url(#cp66)"><g clip-path="url(#cp67)"><path class="b" d="m308.9 332.1q0 1-0.4 2-0.3 1-0.9 1.8-0.6 0.7-1.3 1.1-0.8 0.4-1.6 0.4-0.8 0-1.5-0.5-0.8-0.4-1.3-1.2-0.6-0.7-0.8-1.7-0.3-1-0.3-2.1 0-1.1 0.4-2.1 0.3-1 0.9-1.7 0.6-0.8 1.3-1.1 0.8-0.4 1.6-0.4 0.8 0 1.5 0.4 0.7 0.5 1.3 1.2 0.5 0.8 0.8 1.8 0.3 1 0.3 2.1z"/></g></g></g><g clip-path="url(#cp68)"><g clip-path="url(#cp69)"><g clip-path="url(#cp70)"><path class="e" d="m163.6 360.2q-1.8-0.2-3.5-1-1.6-0.9-2.8-2.2-1.2-1.4-1.8-3.1-0.1-0.4 0.1-0.8 0.2-0.4 0.6-0.5 0.4-0.1 0.8 0.1 0.4 0.2 0.5 0.6 0.5 1.3 1.4 2.3 1 1 2.2 1.7c2.7 1.3 6.3 1.1 10.8-0.5q0.7-0.2 1.2 0.3c0.1 0.2 4.3 4.5 9.6 1.3q0.4-0.2 0.8-0.1 0.4 0.2 0.6 0.5 0.2 0.4 0.2 0.8-0.1 0.4-0.5 0.7-1.4 0.8-2.9 1.2-1.6 0.3-3.2 0.2-1.6-0.2-3.1-0.9-1.4-0.6-2.6-1.7-4.1 1.5-8.4 1.1z"/></g></g></g><g clip-path="url(#cp71)"><g clip-path="url(#cp72)"><g clip-path="url(#cp73)"><path class="e" d="m376.8 337.3q-0.8-0.1-1.5-0.3-1.8-0.5-3.2-1.6-1.4-1.1-2.3-2.7-0.2-0.4-0.1-0.8 0.1-0.5 0.5-0.7 0.4-0.2 0.9 0 0.4 0.1 0.6 0.5 0.7 1.2 1.8 2 1.1 0.9 2.4 1.2c2.9 0.9 6.5 0 10.5-2.4q0.7-0.4 1.3 0.1c0.2 0.1 5 3.6 9.7-0.5q0.3-0.3 0.7-0.3 0.5 0.1 0.8 0.4 0.3 0.4 0.3 0.8-0.1 0.5-0.4 0.7-1.2 1.1-2.7 1.8-1.5 0.6-3.1 0.7-1.6 0.2-3.1-0.2-1.6-0.4-2.9-1.3c-3.8 2.1-7.2 3-10.2 2.6z"/></g></g></g><g clip-path="url(#cp74)"><g clip-path="url(#cp75)"><g clip-path="url(#cp76)"><path class="d" d="m251.6 350.4q-0.1 0.3-0.3 0.5-0.2 0.3-0.7 0.5-0.4 0.2-1.1 0.4-0.6 0.1-1.4 0.3-0.8 0.1-1.7 0.1-0.9 0.1-1.9 0-1 0-2.1-0.1-1.1 0-2.2-0.2-1-0.1-2.1-0.3-1.1-0.2-2-0.4-1-0.3-1.9-0.6-0.9-0.2-1.6-0.5-0.7-0.4-1.3-0.7-0.6-0.3-1-0.6-0.3-0.3-0.5-0.6-0.2-0.4-0.2-0.6 0.1-0.3 0.3-0.6 0.3-0.2 0.7-0.5 0.5-0.2 1.1-0.3 0.6-0.2 1.4-0.3 0.8-0.1 1.7-0.2 1 0 2 0 1 0 2 0.1 1.1 0.1 2.2 0.2 1.1 0.2 2.1 0.4 1.1 0.2 2.1 0.4 0.9 0.2 1.8 0.5 0.9 0.3 1.6 0.6 0.8 0.3 1.3 0.6 0.6 0.3 1 0.7 0.4 0.3 0.5 0.6 0.2 0.3 0.2 0.6z"/></g></g></g><g clip-path="url(#cp77)"><g clip-path="url(#cp78)"><g clip-path="url(#cp79)"><path class="d" d="m335.5 340.9c0.3 1.6-4.3 3.9-10.3 5-6 1.1-11.1 0.7-11.4-0.9-0.3-1.6 4.3-3.8 10.3-4.9 6-1.2 11.1-0.8 11.4 0.8z"/></g></g></g><g clip-path="url(#cp80)"><g clip-path="url(#cp81)"><g clip-path="url(#cp82)"><path class="f" d="m282.9 341.9q0.9-0.8 2.1-1.2 1.1-0.3 2.3-0.2c1.3 0.2 2.8 1.1 2.8 2.6-0.1 2.1-1.8 3.1-3.3 4.1l0.2-1.7c2 1.8 4.3 5.9 0.2 6.7q-2.1 0.4-4-0.5-0.8-0.4-1.1-1.1 0.5 0.4 1.3 0.5 2 0.3 3.9-0.7c1-0.5-1.2-2.8-1.8-3.4q-0.3-0.3-0.3-0.8 0-0.4 0.3-0.7c0.9-0.7 2.3-1.4 2.7-2.4q0-0.4-0.3-0.6c-1.3-1.3-3.3-1-5-0.6z"/></g></g></g><g clip-path="url(#cp83)"><g clip-path="url(#cp84)"><g clip-path="url(#cp85)"><g clip-path="url(#cp86)"><g clip-path="url(#cp87)"><path class="b" d="m210.5 293.4h139v96.4h-139z"/></g></g></g></g></g></svg>